<svg xmlns="http://www.w3.org/2000/svg" width="38.057" height="38.057" viewBox="-8636.455 5766.581 38.057 38.057"><path d="M-8617.426 5804.638a18.91 18.91 0 0 1-7.407-1.496 18.966 18.966 0 0 1-6.049-4.078 18.965 18.965 0 0 1-4.078-6.048 18.907 18.907 0 0 1-1.495-7.406 18.91 18.91 0 0 1 1.495-7.407c.959-2.266 2.33-4.301 4.078-6.049a18.965 18.965 0 0 1 6.049-4.078 18.91 18.91 0 0 1 7.407-1.495 18.907 18.907 0 0 1 7.406 1.495c2.266.959 4.3 2.33 6.048 4.078a18.966 18.966 0 0 1 4.078 6.049 18.91 18.91 0 0 1 1.495 7.407 18.908 18.908 0 0 1-1.495 7.406 18.965 18.965 0 0 1-4.078 6.048 18.965 18.965 0 0 1-6.048 4.078 18.908 18.908 0 0 1-7.406 1.496Zm-9.515-19.143v.228c0 1.103.897 2 2 2h5.4v5.4c0 1.103.897 2 2 2h.228c1.103 0 2-.897 2-2v-5.4h5.4c1.103 0 2-.897 2-2v-.228c0-1.103-.897-2-2-2h-5.4v-5.4c0-1.103-.897-2-2-2h-.229c-1.102 0-2 .897-2 2v5.4h-5.4c-1.102 0-2 .897-2 2Z" fill="#157dfc" fill-rule="evenodd" data-name="Exclusion 1"/></svg>