<svg xmlns="http://www.w3.org/2000/svg" width="45.388" height="37.823"><path d="M39.714 5.673h-6.552L29.94.843A1.892 1.892 0 0 0 28.367 0H17.02a1.89 1.89 0 0 0-1.573.842l-3.221 4.831H5.673A5.673 5.673 0 0 0 0 11.347V32.15a5.673 5.673 0 0 0 5.673 5.673h34.041a5.673 5.673 0 0 0 5.674-5.673V11.347a5.674 5.674 0 0 0-5.674-5.674Zm-17.02 24.585a9.455 9.455 0 0 1-9.456-9.455 9.456 9.456 0 0 1 9.456-9.456 9.456 9.456 0 0 1 9.456 9.456 9.456 9.456 0 0 1-9.456 9.455Z" fill="#157dfc" fill-rule="evenodd" data-name="Path 7"/></svg>