<svg xmlns="http://www.w3.org/2000/svg" width="38.057" height="38.057" viewBox="-8080.402 4695.38 38.057 38.057"><path d="M-8061.374 4733.437a18.91 18.91 0 0 1-7.406-1.495 18.966 18.966 0 0 1-6.049-4.078 18.965 18.965 0 0 1-4.078-6.049 18.907 18.907 0 0 1-1.495-7.406 18.91 18.91 0 0 1 1.495-7.407c.958-2.266 2.33-4.3 4.078-6.048a18.965 18.965 0 0 1 6.049-4.078 18.91 18.91 0 0 1 7.406-1.496 18.907 18.907 0 0 1 7.407 1.496c2.265.958 4.3 2.33 6.048 4.078a18.966 18.966 0 0 1 4.078 6.048 18.91 18.91 0 0 1 1.495 7.407 18.908 18.908 0 0 1-1.495 7.406 18.965 18.965 0 0 1-4.078 6.049 18.965 18.965 0 0 1-6.048 4.078 18.908 18.908 0 0 1-7.407 1.495Zm-3.171-20.373v9.856c0 1.654 1.345 3 3 3h.342c1.654 0 3-1.346 3-3v-9.856a3.004 3.004 0 0 0-3-3.001h-.343a3.004 3.004 0 0 0-3 3Zm0-7.4v.342a3.004 3.004 0 0 0 3 3h.342a3.004 3.004 0 0 0 3-3v-.342a3.004 3.004 0 0 0-3-3h-.343a3.004 3.004 0 0 0-3 3Z" fill="#157cfc" fill-rule="evenodd" data-name="Exclusion 3"/></svg>