<svg xmlns="http://www.w3.org/2000/svg" width="46.217" height="41.228"><g data-name="Group 13"><path d="M42.029 14.909H29.568a14.067 14.067 0 0 0 1.543-4.528c.365-2.218.239-4.517-.477-6.413a7.138 7.138 0 0 0-1.184-2.08 5.14 5.14 0 0 0-3.71-1.88l-.037-.003A2.734 2.734 0 0 0 25.536 0a2.695 2.695 0 0 0-2.683 2.472c-.286 2.898-1.449 7.781-3.144 10.253a5.563 5.563 0 0 1-.642.788 15.04 15.04 0 0 1-.647.61c-1.429 1.27-2.79 1.948-4.836 2.95a1255.497 1255.497 0 0 1-.145.07 417.69 417.69 0 0 0-.553.271 119.226 119.226 0 0 0-.594.294c.008.088.012.176.012.267v20.37l.87.299c4.025 1.387 7.503 2.584 12.82 2.584h10.074c2.715 0 4.152-2.07 4.187-4.139a4.582 4.582 0 0 0 0-.078 4.603 4.603 0 0 0 0-.051 4.542 4.542 0 0 0-.375-1.766 3.979 3.979 0 0 0 2.31-1.279 4.297 4.297 0 0 0 1.042-2.664 4.707 4.707 0 0 0 .004-.202 4.58 4.58 0 0 0-.001-.12 4.535 4.535 0 0 0-.374-1.693 3.955 3.955 0 0 0 1.824-.807c.991-.795 1.51-2.029 1.532-3.262a4.584 4.584 0 0 0 0-.08 4.579 4.579 0 0 0 0-.08 4.35 4.35 0 0 0-1.141-2.9c.753-.801 1.14-1.895 1.14-2.981 0-1.606-.845-3.228-2.477-3.897a4.474 4.474 0 0 0-1.71-.32Z" fill="#157cfc" fill-rule="evenodd" data-name="Path 13"/><path d="M9.004 16.688H1.286a1.278 1.278 0 0 0-1.014.488 1.288 1.288 0 0 0-.272.799v20.58a1.278 1.278 0 0 0 .487 1.015 1.288 1.288 0 0 0 .8.271h7.717a1.277 1.277 0 0 0 1.01-.482 1.289 1.289 0 0 0 .276-.804v-20.58a1.25 1.25 0 0 0 0-.002c0-.72-.566-1.285-1.286-1.285Z" fill="#157cfc" fill-rule="evenodd" data-name="Path 12"/></g></svg>