<svg xmlns="http://www.w3.org/2000/svg" width="31.411" height="41.228" viewBox="-8420.799 5763.41 31.411 41.228"><g data-name="Group 12"><path d="M-8407.45 5797.767v2.16h-4.71a2.357 2.357 0 0 0-2.357 2.355 2.357 2.357 0 0 0 2.356 2.356h14.135a2.357 2.357 0 0 0 0-4.711h-4.711v-2.16a15.716 15.716 0 0 0 13.35-15.51 2.356 2.356 0 0 0-4.712 0 11.007 11.007 0 0 1-10.994 10.994 11.007 11.007 0 0 1-10.994-10.994 2.357 2.357 0 0 0-2.356-2.356 2.356 2.356 0 0 0-2.356 2.356c0 7.858 5.806 14.368 13.35 15.51Z" fill="#157cfc" fill-rule="evenodd" data-name="Path 11"/><path d="M-8396.848 5782.257v-10.601a8.246 8.246 0 0 0-8.245-8.246 8.246 8.246 0 0 0-8.246 8.246v10.601a8.246 8.246 0 1 0 16.491 0Z" fill="#157cfc" fill-rule="evenodd" data-name="Path 10"/></g></svg>