<svg xmlns="http://www.w3.org/2000/svg" width="40.72" height="40.725"><path d="M15.178 6.403a475.695 475.695 0 0 0-1.833-1.835l-.787-.785-.838-.841a225.245 225.245 0 0 0-1.863-1.857 4.911 4.911 0 0 0-.056-.054C8.625-.087 7.225-.296 5.968.407a4.18 4.18 0 0 0-.886.674 139.941 139.941 0 0 0-1.34 1.342l-.015.015a95.074 95.074 0 0 1-1.988 1.969 5.957 5.957 0 0 0-.006.006A5.423 5.423 0 0 0 .03 8.077 11.365 11.365 0 0 0 0 8.923a16.76 16.76 0 0 0 1.228 5.839 40.715 40.715 0 0 0 7.205 12.004c4.111 4.895 9.026 8.767 14.775 11.561a21.378 21.378 0 0 0 8.184 2.383 9.392 9.392 0 0 0 .516.015c1.062 0 2.047-.192 2.94-.647a5.793 5.793 0 0 0 1.694-1.324c.635-.71 1.319-1.375 2.003-2.04a80.038 80.038 0 0 0 1.042-1.027c1.501-1.515 1.513-3.352.02-4.856a893.232 893.232 0 0 0-5.36-5.357c-1.47-1.455-3.305-1.452-4.768-.003l-.289.286a203.493 203.493 0 0 0-3.039 3.055c-.259.267-.485.35-.784.235a1.201 1.201 0 0 1-.139-.065c-.28-.152-.567-.293-.853-.434a14.459 14.459 0 0 1-1.327-.71 34.413 34.413 0 0 1-8.345-7.595 19.548 19.548 0 0 1-2.987-4.788 1.796 1.796 0 0 1-.024-.061c-.108-.288-.091-.496.107-.726a1.356 1.356 0 0 1 .086-.09 180.062 180.062 0 0 0 2.683-2.666l.62-.622a5.278 5.278 0 0 0 .18-.19c1.344-1.493 1.28-3.213-.19-4.697Z" fill="#157cfc" fill-rule="evenodd" data-name="Path 4"/></svg>