<svg xmlns="http://www.w3.org/2000/svg" width="38.057" height="38.057" viewBox="-8135.373 5766.17 38.057 38.057"><path d="M-8123.751 5802.731a18.91 18.91 0 0 0 7.406 1.496 18.91 18.91 0 0 0 7.407-1.496c2.266-.958 4.301-2.33 6.049-4.077a18.965 18.965 0 0 0 4.077-6.049 18.91 18.91 0 0 0 1.496-7.407 18.91 18.91 0 0 0-1.496-7.407 18.965 18.965 0 0 0-4.077-6.048 18.965 18.965 0 0 0-6.049-4.078 18.91 18.91 0 0 0-7.407-1.495 18.91 18.91 0 0 0-7.406 1.495 18.965 18.965 0 0 0-6.049 4.078 18.965 18.965 0 0 0-4.078 6.048 18.91 18.91 0 0 0-1.495 7.407 18.91 18.91 0 0 0 1.495 7.407 18.965 18.965 0 0 0 4.078 6.049 18.965 18.965 0 0 0 6.049 4.077Zm-1.442-14.056a1.966 1.966 0 0 0-1.397.578 1.98 1.98 0 0 0 0 2.796 14.394 14.394 0 0 0 10.245 4.235 14.393 14.393 0 0 0 10.245-4.235 1.964 1.964 0 0 0 .546-1.043 1.979 1.979 0 0 0-.46-1.66 1.998 1.998 0 0 0-.086-.093 1.966 1.966 0 0 0-1.397-.578 1.966 1.966 0 0 0-1.397.578 10.463 10.463 0 0 1-7.451 3.083 10.463 10.463 0 0 1-7.451-3.083 1.964 1.964 0 0 0-1.397-.578Zm2.505-11.934a3.175 3.175 0 0 0-3.17 3.171 3.175 3.175 0 0 0 3.17 3.172 3.175 3.175 0 0 0 3.171-3.172 3.175 3.175 0 0 0-3.17-3.17Zm12.686 0a3.175 3.175 0 0 0-3.172 3.171 3.175 3.175 0 0 0 3.172 3.172 3.176 3.176 0 0 0 3.172-3.172 3.175 3.175 0 0 0-3.172-3.17Z" fill="#157dfc" fill-rule="evenodd" data-name="Exclusion 2"/></svg>