<svg xmlns="http://www.w3.org/2000/svg" width="55.137" height="37" viewBox="-8172.951 4696.438 55.137 37"><g data-name="Group 6"><path d="m-8122.601 4725.487-7.073-3.744a3.262 3.262 0 0 1-1.736-2.882v-8.069a3.262 3.262 0 0 1 1.736-2.882l7.073-3.744a3.317 3.317 0 0 1 .736-.285c1.863-.474 3.798.808 4.028 2.774a3.382 3.382 0 0 1 .022.392v15.56a3.218 3.218 0 0 1-.776 2.114c-.903 1.053-2.45 1.495-3.847.847a3.423 3.423 0 0 1-.163-.08Z" fill="#157cfc" fill-rule="evenodd" data-name="Path 3"/><path d="M-8164.951 4696.438h21a8 8 0 0 1 8 8v21a8 8 0 0 1-8 8h-21a8 8 0 0 1-8-8v-21a8 8 0 0 1 8-8z" fill="#157cfc" fill-rule="evenodd" data-name="Rectangle 8"/></g></svg>